<?xml version="1.0" encoding="UTF-8" standalone="no" ?>
<svg viewBox="0 -26 512 512" xmlns="http://www.w3.org/2000/svg">
    <path d="m56 70 160 200v180l6.878906-1.148438c16.492188-2.75 31.660156-9.703124 44.269532-19.839843 12.613281-10.152344 22.640624-23.492188 28.851562-39.011719v-120l160-200zm0 0" fill="#e87288" />
    <path d="m502 10v20c0 22.089844-17.910156 40-40 40-51.355469 0-350.152344 0-416.171875 0-19.789063 0-35.828125-16.039062-35.828125-35.828125v-24.171875zm0 0" fill="#fafaff" />
    <path d="m376 120c5.519531 0 10-4.480469 10-10s-4.480469-10-10-10-10 4.480469-10 10 4.480469 10 10 10zm0 0" />
    <path d="m502 0h-492c-5.523438 0-10 4.476562-10 10v24.171875c0 25.269531 20.558594 45.828125 45.828125 45.828125h5.367187l154.804688 193.507812v176.492188c0 6.1875 5.5625 10.882812 11.648438 9.863281l6.875-1.148437c17.867187-2.980469 34.773437-10.558594 48.898437-21.914063 20.832031-16.769531 32.578125-40.902343 32.578125-46.800781v-116.492188l154.804688-193.507812h1.195312c27.570312 0 50-22.429688 50-50v-20c0-5.523438-4.476562-10-10-10zm-241.117188 421.21875c-10.1875 8.191406-22.160156 13.957031-34.882812 16.832031v-158.050781h60v108.019531c-5.507812 12.933594-14.164062 24.382813-25.117188 33.199219zm30.308594-161.21875h-70.386718l-144-180h358.386718zm200.808594-230c0 16.542969-13.457031 30-30 30h-416.171875c-14.242187 0-25.828125-11.585938-25.828125-25.828125v-14.171875h472zm0 0" />
    <path d="m270.519531 237.808594c4.304688 3.441406 10.597657 2.761718 14.058594-1.5625l72.339844-90.410156c3.449219-4.3125 2.753906-10.605469-1.558594-14.054688s-10.605469-2.753906-14.058594 1.558594l-72.339843 90.410156c-3.449219 4.3125-2.75 10.605469 1.558593 14.058594zm0 0" />
</svg>