<?xml version="1.0" encoding="UTF-8" standalone="no"?>
<svg xmlns:dc="http://purl.org/dc/elements/1.1/"
     xmlns:svg="http://www.w3.org/2000/svg"
     xmlns="http://www.w3.org/2000/svg"
     height="1792"
     viewBox="0 0 1792 1792"
     width="1792"
     version="1.1">
    <path d="m 1408,704.00003 c 0,17.33333 -6.3333,32.33333 -19,45 -12.6667,12.66667 -27.6667,19 -45,19 H 447.99997 c -17.33333,0 -32.33333,-6.33333 -45,-19 -12.66667,-12.66667 -19,-27.66667 -19,-45 0,-17.33333 6.33333,-32.33333 19,-45 l 448,-448 c 12.66667,-12.66667 27.66667,-19 45,-19 17.33333,0 32.33334,6.33333 45.00003,19 l 448,448 c 12.6667,12.66667 19,27.66667 19,45 z"
          opacity="0.3" />
    <path d="m 1408,1088 c 0,17.3333 -6.3333,32.3333 -19,45 l -448,448 c -12.66667,12.6667 -27.66667,19 -45,19 -17.33333,0 -32.33333,-6.3333 -45,-19 L 403,1133 c -12.66667,-12.6667 -19,-27.6667 -19,-45 0,-17.3333 6.33333,-32.3333 19,-45 12.66667,-12.6667 27.66667,-19 45,-19 h 896 c 17.3333,0 32.3333,6.3333 45,19 12.6667,12.6667 19,27.6667 19,45 z"
          opacity="0.3" />
</svg>
