<svg width="151" height="151" viewBox="0 0 151 151" fill="none" xmlns="http://www.w3.org/2000/svg">
	<path d="M55.1244 33.4654C53.2212 35.1334 48.4811 37.4751 46.09 38.9264C46.0457 38.9528 46.0016 38.9793 45.9576 39.0057C45.3876 39.3432 44.8735 39.69 44.2989 40.0968C44.1127 40.2287 43.9171 40.3694 43.7174 40.5145C42.6044 41.3473 41.0195 42.4471 38.0776 45.3187C37.484 46.0605 36.8998 46.8323 36.3236 47.6298C36.2814 47.6887 36.1122 47.9452 35.9408 48.2341C33.4796 52.5504 30.7903 58.8459 28.7234 64.311C26.9174 69.2533 25.4722 75.6726 24.6053 81.3019C23.9906 85.5202 23.9129 89.6433 24.6461 93.2699C24.692 93.4291 24.7421 93.5964 24.7932 93.7592C25.3281 95.4456 25.9485 96.8138 27.061 98.6972C28.119 100.529 29.2344 102.413 29.9966 103.889C32.0049 107.756 33.3696 110.401 34.4844 112.536C35.1017 113.528 35.7279 114.511 36.3509 115.453C38.7686 119.151 42.4164 122.7 46.3683 125.711C47.4673 126.8 50.5526 127.333 54.6234 128.059C57.8474 128.701 61.5191 128.919 65.2836 129.074C68.737 129.215 72.308 129.287 75.995 129.542C76.8583 129.602 77.7315 129.635 78.6101 129.642C82.3327 129.67 86.1502 129.263 89.8342 128.493C91.038 128.158 92.1845 127.781 93.2524 127.378C94.0092 127.087 94.7233 126.769 95.4075 126.433C97.6309 125.339 99.4619 124.079 100.987 123.029C104.674 120.536 108.674 117.1 111.53 114.1C112.005 113.608 112.453 113.133 112.901 112.654C112.923 112.626 112.946 112.597 112.969 112.57C115.115 109.914 117.144 107.255 119.114 104.505C119.303 104.366 119.499 104.219 119.694 104.079C121.681 102.62 123.466 100.436 125.796 97.1553C126.28 96.4738 126.75 95.7482 127.187 94.9703C128.199 93.1764 128.932 91.2561 129.661 88.0916C130.134 86.0499 130.686 84.9377 131.149 84.068C131.285 83.8056 131.411 83.5702 131.527 83.3157C131.528 83.3127 131.53 83.3097 131.531 83.3067C131.882 82.6326 131.785 81.783 131.618 80.7946C131.4 79.4968 131.073 77.9625 131.434 75.8613C131.843 73.4374 131.857 71.4282 131.709 69.8126C131.474 67.5628 130.384 66.2109 129.536 65.1949C129.134 64.7208 128.754 64.2969 128.418 63.8265C128.211 63.5367 128.004 63.2112 127.795 62.8571C126.846 61.2262 125.937 59.1036 125.289 57.2837C124.968 56.3755 124.252 55.1135 123.406 53.6955C122.876 52.8655 122.085 52.0695 121.219 51.3624C120.559 50.8212 119.717 49.928 118.578 48.807C117.567 47.8093 116.343 46.64 114.942 45.4242C114.761 45.2726 114.571 45.1199 114.373 44.9687C110.778 42.2983 108.194 40.8613 106.199 39.4947C106.141 39.4584 106.084 39.4225 106.027 39.3869C105.581 39.109 105.141 38.8489 104.68 38.5873C103.297 37.795 101.37 36.7735 99.1392 35.4319C99.0591 35.3852 98.9793 35.3393 98.8988 35.2934C96.8794 34.1322 94.5468 33.1731 92.5216 32.4764C92.4688 32.4502 92.4158 32.424 92.3624 32.3976C90.134 31.2972 87.804 30.2324 85.4057 29.1521C82.9705 28.0447 80.9351 27.2267 78.8314 26.7401C78.7578 26.7311 78.5414 26.6796 78.4684 26.6669C78.1366 26.5784 77.8358 26.4929 77.5595 26.4134C76.1085 25.9852 75.0624 25.5384 73.8846 24.9784L74.1472 25.015C73.0581 24.5341 71.8849 23.9535 70.926 23.2761C68.9427 21.8922 67.8592 20.2196 67.9886 18.577C68.1177 16.9362 69.4159 15.4378 71.657 14.3973C72.7626 13.8926 74.0214 13.5105 75.5327 13.3317C75.5756 13.339 75.7057 13.3526 75.7483 13.3617C77.286 13.2297 79.1213 13.3853 80.6445 13.6973C80.9177 13.751 81.1725 13.7999 81.4012 13.8396L81.0967 13.7782C84.4971 14.2327 87.7692 15.2597 90.5797 16.2712C93.1086 17.1702 95.6861 18.1098 98.285 19.1709C98.5454 19.2773 98.8051 19.3843 99.0679 19.4942C101.638 20.5637 104.422 21.8792 107.052 23.5622C109.206 24.9229 111.875 26.3656 114.689 28.4822C116.073 29.5208 117.645 30.6552 119.23 31.8936C120.815 33.1333 122.442 34.4687 124.078 36.0775C126.356 38.3702 128.784 40.5165 131.442 43.797C131.866 44.3318 132.287 44.901 132.696 45.5058C133.302 46.2667 133.887 47.0989 134.412 47.9727C136.191 50.6649 138.263 53.6192 139.62 55.9396C139.713 56.0968 139.802 56.2493 139.889 56.403C141.174 58.6783 141.85 60.7487 142.304 62.6145C142.64 63.9997 142.867 65.2836 143.135 66.618C143.239 67.1394 143.364 67.8096 143.466 68.624C143.496 68.8525 143.528 69.0972 143.559 69.3511C143.979 73.0307 144.675 79.0677 143.048 85.6885C142.992 85.891 142.936 86.0903 142.88 86.2876C142.232 88.5142 141.435 91.3026 140.182 94.3647C138.559 98.4385 135.987 101.734 134.78 103.485C134.674 103.641 134.579 103.789 134.496 103.927C132.836 106.688 130.482 109.559 128.332 112.045C126.284 114.422 124.428 116.444 123.638 117.815C123.122 118.711 122.545 119.453 121.861 120.201C121.335 120.774 120.663 121.45 119.866 122.216C118.633 123.395 117.089 124.848 114.926 126.779C112.415 129.003 110.34 130.282 108.559 131.282C106.023 132.675 104.086 133.59 101.254 135.277C99.6237 136.233 97.8356 137.058 96.0489 137.649C94.4496 138.184 92.8991 138.558 91.5136 138.758C90.2127 138.946 88.7397 139.202 87.1966 139.412C85.155 139.692 82.9855 139.886 80.9894 139.797C79.3445 139.725 77.9842 139.388 76.7989 139.06C76.4284 138.957 76.075 138.855 75.7324 138.76C75.6174 138.754 75.5024 138.747 75.3874 138.74C74.3409 138.675 73.2823 138.629 72.2143 138.597C72.0226 138.642 71.8211 138.691 71.6105 138.743C70.5531 139.002 69.2527 139.33 67.6229 139.476C65.0415 139.705 62.7286 139.483 60.2385 139.166C58.2964 138.914 56.2597 138.623 53.8135 138.324C53.5268 138.289 53.2254 138.251 52.9228 138.212C51.7186 138.064 50.3294 137.991 48.7802 137.842C46.0623 137.641 42.435 136.746 40.3312 135.121C40.2077 135.031 40.0899 134.938 39.9772 134.842C39.5545 134.453 39.2374 134.016 38.9328 133.584C38.9314 133.581 38.9299 133.579 38.9285 133.576C38.9031 133.541 38.8796 133.507 38.8551 133.472C35.1057 130.882 31.5261 127.968 28.2999 124.365C27.9932 124.075 27.6869 123.775 27.3866 123.47C27.1045 123.184 26.8266 122.893 26.5552 122.601C25.5101 121.506 24.5593 120.5 23.7936 119.867C22.7625 119.018 20.7975 116.482 18.8047 113.776C17.4972 112.005 16.1699 110.163 15.0186 108.651C14.488 107.955 14.1448 107.165 13.8377 106.321C13.7752 106.131 13.6951 105.904 13.6099 105.665C13.2255 104.589 12.8179 103.373 12.2264 102.147C11.9257 101.525 11.5741 100.885 11.2183 100.173C10.9034 99.5416 10.5973 98.8881 10.3295 98.1648C10.0825 97.4991 9.76665 95.9537 9.56574 94.0029C9.44015 92.7999 9.35732 91.4461 9.32022 90.0493C8.89561 86.5344 8.87567 83.0954 9.10652 79.7225C9.11682 79.5715 9.12788 79.4184 9.1397 79.2633C9.03848 78.518 8.8818 77.8776 8.64635 77.3482C8.47707 76.972 8.26097 76.6398 8.04166 76.2971C7.74319 75.8321 7.43663 75.3502 7.23427 74.7118C7.07545 74.2168 7.07212 73.6561 7.22774 73.3079C7.30008 73.1466 7.40554 73.0304 7.50111 72.9248C7.61077 72.8029 7.70787 72.6981 7.73099 72.5509C7.7475 72.4449 7.70539 72.3241 7.6552 72.1748C7.57466 71.939 7.47197 71.6285 7.54476 71.2001C7.81639 69.6013 8.22911 67.8051 8.68634 66.0313C9.19306 64.0592 9.75883 62.1125 10.1993 60.4868C10.3799 59.8183 10.6397 59.0517 10.9778 58.2016C11.5058 56.8953 12.1813 55.4717 12.8749 54.0716C13.6379 52.5306 14.425 51.0112 15.0525 49.6864C15.6677 48.3866 16.1478 46.9648 16.648 45.5706C17.2477 43.8984 17.8754 42.27 18.7888 40.9708C18.9711 40.7133 19.3808 40.4761 19.9042 40.178C20.2744 39.9688 20.7035 39.7254 21.1656 39.4073C21.5145 38.8267 21.8836 38.232 22.4197 37.4954C23.2075 36.4218 24.0355 35.3629 24.9117 34.3223C24.9295 34.2475 24.9483 34.1707 24.9666 34.0934C24.9667 34.092 24.9668 34.0906 24.9669 34.0892C25.3807 32.3589 26.0832 29.8473 28.9968 28.0353C29.7354 27.582 30.3443 27.4609 30.8883 27.359C31.424 27.2594 31.8987 27.1797 32.4139 26.8375C32.605 26.7108 32.7938 26.558 32.9826 26.3877C33.3442 26.0571 33.7072 25.6453 34.0885 25.221C34.8862 24.334 35.7904 23.3738 37.003 22.8993C37.0854 22.8671 37.1744 22.8329 37.2667 22.7968C38.1413 22.4537 39.4376 21.969 40.8693 21.7713C44.1323 20.028 47.3461 18.4601 51.3092 17.145C51.7063 17.0125 52.1405 16.8869 52.4771 16.8014C60.1433 15.2042 65.7313 15.4498 72.0095 15.244C74.9949 15.1964 77.8674 15.7652 80.0199 16.8279C82.1692 17.8944 83.4465 19.3504 83.5793 20.9606C83.738 22.5687 82.6581 24.2304 80.6458 25.5911C78.6327 26.9522 75.876 27.8956 72.9972 28.2916C68.3281 28.939 63.5909 29.6216 59.4562 30.565C59.2547 30.6329 59.0371 30.7038 58.8391 30.7709C57.8361 31.1066 56.8222 31.647 56.7798 31.9985C56.4915 32.2443 56.1834 32.5151 55.8657 32.7988C55.6236 33.0149 55.3745 33.2394 55.1244 33.4654Z" fill="black"/>
</svg>
