<svg width="151" height="151" viewBox="0 0 151 151" fill="none" xmlns="http://www.w3.org/2000/svg">
	<path d="M17.9909 116.909C18.5002 115.386 20.7247 113.784 21.928 112.926C21.9503 112.909 21.9726 112.893 21.9949 112.877C22.289 112.665 22.5451 112.447 22.8339 112.2C23.5366 111.601 24.5133 110.766 26.7703 109.393C27.3477 108.847 27.8637 108.368 28.4473 107.842C29.7552 106.663 31.0705 105.52 32.447 104.355C37.3501 100.215 42.5388 96.2839 47.7185 92.4715C47.793 92.3997 47.8689 92.3266 47.9456 92.2526C49.4404 90.8112 51.2726 89.0447 52.6477 88.1974C54.4093 87.1081 55.6598 86.4402 56.7001 85.8986C61.9836 82.0222 67.1986 78.1233 72.218 73.9653C73.7887 72.6642 75.3396 71.3376 76.8633 69.9826C78.265 68.7362 79.6558 67.4666 81.0255 66.187C81.7329 65.3327 82.377 64.4921 82.9726 63.7145C83.8105 62.6208 84.563 61.6421 85.2542 60.9266C86.9291 59.1942 89.1545 57.6002 90.8064 56.4172C91.0757 56.2244 91.3292 56.0432 91.5626 55.874C92.707 54.7152 93.8068 53.586 94.9457 52.4187C95.0688 52.3953 95.1942 52.3736 95.3221 52.3519C96.9101 52.0885 98.1755 50.9486 100.134 49.1853C101.008 48.3988 101.973 47.5303 103.21 46.5131C103.999 45.865 104.61 45.7771 105.109 45.7045C105.256 45.6828 105.392 45.6647 105.523 45.6302C105.973 45.5128 106.146 45.0534 106.347 44.5136C106.613 43.8078 106.893 42.9957 107.947 42.5663C111.225 41.2689 111.779 39.6755 112.2 38.4686C112.325 38.1134 112.436 37.7935 112.6 37.525C113.116 36.6682 114.381 35.9337 115.419 35.5484C115.56 35.496 115.705 35.4145 115.852 35.3103C116.624 34.754 117.377 33.7132 117.971 32.734C118.236 32.2935 118.695 31.8787 119.268 31.3614C119.879 30.8102 120.506 30.2453 121.152 29.4372C122.688 27.4827 123.549 26.4279 124.202 25.6165C124.38 25.3924 124.581 25.1536 124.756 24.9351C125.309 24.2452 126.045 23.4246 126.792 22.59C127.66 21.6149 128.585 20.5821 129.196 19.7652C131.174 18.2398 133.743 16.2489 134.945 15.3602C134.946 15.3766 134.928 15.4121 134.812 15.5972C134.756 15.6878 134.675 15.818 134.572 16.0068C134.479 16.1758 134.374 16.4064 134.391 16.4034C134.484 16.4175 134.401 16.7338 134.402 17.5775C134.38 18.3983 134.754 19.7858 135.359 20.4446C136.213 21.3718 136.547 20.9526 136.771 20.6337C137.31 19.4784 137.585 17.7099 138.624 16.4285C139.646 15.1523 140.871 14.0139 142.757 14.0356C143.428 14.1212 144.245 14.2036 145.321 15.5874C146.083 16.5703 146.51 18.2767 146.42 19.5253C146.355 20.794 146.067 21.6208 145.885 22.1786C145.857 22.2649 145.723 22.5496 145.596 22.7742C145.457 23.0223 145.335 23.2115 145.23 23.3685C145.01 23.692 144.868 23.874 144.738 24.0384C142.319 26.9365 140.742 28.587 138.752 30.7103C136.412 33.1771 134.032 35.5497 131.53 37.7923C129.784 39.3569 127.975 40.9217 126.189 42.4213C126 42.5801 125.806 42.7427 125.629 42.8906C125.18 43.5 124.712 44.1193 124.243 44.7166C123.547 45.6243 122.822 46.4995 122.249 47.1188C121.482 47.9477 120.687 48.3663 120.037 48.6976C119.59 48.9247 119.191 49.1289 118.873 49.4366C118.702 49.6019 118.475 49.8373 118.199 50.1235C117.099 51.2666 115.22 53.2188 113.098 54.5764C112.178 55.1602 110.979 55.7638 109.858 56.3188C108.257 57.1103 106.737 57.873 106.225 58.509C105.308 59.6428 103.946 60.5841 102.739 61.419C101.576 62.2256 100.589 62.9051 100.25 63.5731C99.85 64.3674 99.2314 64.7386 98.3233 65.281C97.6925 65.6581 96.9107 66.1289 95.9621 66.8819C94.8713 67.7474 93.9778 68.2343 93.2174 68.6489C92.154 69.2264 91.3537 69.6613 90.6128 70.8288C89.7931 72.1228 88.8241 73.344 87.8269 74.052C87.3748 74.3726 86.9133 74.8027 86.4327 75.2508C85.7966 75.8438 85.1251 76.4692 84.4013 76.91C83.8042 77.2737 83.1666 77.4129 82.6024 77.536C82.4265 77.5744 82.2578 77.6116 82.0995 77.6532C81.6925 78.0206 81.2867 78.3895 80.8833 78.7609C80.8511 78.8584 80.8193 78.963 80.7856 79.0717C80.6164 79.617 80.4079 80.2869 79.9722 80.9158C79.2839 81.9099 78.3898 82.466 77.4506 83.0477C76.7194 83.5004 75.957 83.9723 75.2365 84.6874C74.7456 85.1747 74.246 85.7942 73.7522 86.4069C73.0127 87.3223 72.2847 88.2236 71.6139 88.6597C71.3621 88.8234 71.0398 88.8415 70.7171 88.8614C70.7154 88.8613 70.7138 88.8611 70.7121 88.8609C70.6902 88.8623 70.6685 88.8639 70.6466 88.8653C69.2971 90.2714 67.9731 91.6761 66.6443 93.0976C66.5538 93.2473 66.4616 93.3976 66.3702 93.5461C65.9273 94.2685 65.4829 94.9829 65.32 95.5803C65.1379 96.2328 64.2422 97.316 63.265 98.4876C62.6289 99.2515 61.9927 100.022 61.5046 100.729C61.2212 101.141 60.7413 101.292 60.249 101.445C59.7897 101.588 59.3195 101.734 58.9899 102.096C58.826 102.276 58.6781 102.523 58.5263 102.781C58.3918 103.009 58.2503 103.25 58.0782 103.474C57.9182 103.681 57.4152 103.979 56.7776 104.356C56.3892 104.584 55.9225 104.867 55.4645 105.166C54.4851 106.213 53.4955 107.263 52.5082 108.3C52.4081 108.633 52.3744 108.979 52.4255 109.338C52.4632 109.596 52.5405 109.874 52.6197 110.159C52.7275 110.546 52.8391 110.946 52.8495 111.336C52.8577 111.64 52.7472 111.863 52.5677 111.894C52.4841 111.908 52.3864 111.882 52.298 111.858C52.1967 111.831 52.1065 111.807 52.0615 111.851C52.0292 111.882 52.0358 111.959 52.0431 112.054C52.0548 112.205 52.0694 112.4 51.9384 112.524C51.4607 112.979 50.8317 113.476 50.2381 113.942C49.5765 114.461 48.9413 114.96 48.4727 115.442C47.9495 115.981 47.0539 116.474 46.0962 117.025C45.573 117.322 45.0582 117.613 44.6214 117.899C44.5056 117.976 44.395 118.053 44.2905 118.129C43.7808 118.501 43.391 119.023 43.0249 119.52C42.5725 120.128 42.1209 120.729 41.5452 120.975C41.428 121.026 41.1495 120.94 40.8019 120.832C40.5522 120.758 40.2611 120.679 39.9705 120.626C39.376 121.162 38.8406 121.631 38.2255 122.161C38.2278 122.205 38.2298 122.249 38.2323 122.295C38.2325 122.296 38.2327 122.296 38.2329 122.297C38.2891 123.319 38.387 124.698 37.0411 125.04C36.7024 125.124 36.3619 125.021 36.0456 124.937C35.7326 124.857 35.4533 124.784 35.25 124.9C35.0192 125.032 34.9065 125.357 34.7888 125.707C34.6321 126.191 34.4089 126.775 33.8598 126.919C33.8219 126.929 33.781 126.94 33.739 126.951C33.3539 127.049 32.7253 127.247 31.9526 127.198C30.6361 128.198 29.3151 129.173 27.9919 130.14C25.8625 131.69 23.342 133.526 21.9246 134.603C21.8299 134.664 21.7641 134.675 21.765 134.545C21.7565 134.444 21.8706 134.012 21.7892 133.895C21.1589 134.541 20.3394 135.081 19.3359 135.487C18.5416 135.798 17.664 136.045 16.6886 136.078C16.2112 136.088 15.6645 136.02 15.3258 135.723C14.9785 135.427 14.9918 134.986 14.9994 134.59C15.0138 134.195 14.8986 133.749 14.4313 133.503C13.9712 133.257 13.4289 133.227 13.0365 133.131C12.2359 132.959 11.6919 132.583 11.2449 132.063C10.6907 131.405 10.3741 130.577 10.2875 129.725C10.3802 129.111 10.7713 128.127 11.064 127.572C11.3671 126.98 11.6173 126.586 11.8667 126.233C13.783 123.609 15.0334 122.167 16.5514 120.349C16.6108 120.248 16.6725 120.146 16.7364 120.044C17.2287 119.275 17.5218 118.384 17.7862 117.521C17.8511 117.318 17.9185 117.114 17.9909 116.909Z" fill="black"/>
	<path d="M30.1988 17.9668C31.791 18.3942 33.608 20.5429 34.5966 21.7214C34.6155 21.7433 34.6344 21.7651 34.6534 21.787C34.8932 22.0713 35.1202 22.3016 35.4055 22.5889C36.0939 23.2819 37.0054 24.2002 38.6066 26.4156C38.6844 26.4868 38.7624 26.5583 38.8406 26.6303C39.3243 27.0742 39.8185 27.5375 40.3216 28.02C46.4116 33.8618 52.0398 40.1916 57.5658 46.6126C57.6451 46.6838 57.7258 46.7562 57.8074 46.8294C59.3928 48.2528 61.3454 50.007 62.3241 51.3493C63.583 53.07 64.3664 54.2945 65.0076 55.3176C69.3862 60.4311 73.7979 65.4945 78.4367 70.3359C79.8885 71.8513 81.3691 73.3505 82.8659 74.8118C84.2558 76.1686 85.6503 77.4967 87.0673 78.8176C87.9833 79.4777 88.8983 80.0928 89.7356 80.6528C90.9067 81.4344 91.9681 82.15 92.7502 82.8107C94.6384 84.4063 96.4513 86.5881 97.7773 88.1908C97.9908 88.4495 98.2013 88.7027 98.3953 88.9335C99.6554 90.0245 100.913 91.104 102.169 92.1797C102.202 92.3023 102.233 92.4274 102.264 92.5547C102.674 94.1648 103.921 95.379 105.864 97.2801C106.736 98.1347 107.683 99.0626 108.82 100.28C109.159 100.645 109.363 100.971 109.496 101.267C109.656 101.606 109.726 101.905 109.787 102.172C109.822 102.322 109.854 102.462 109.897 102.592C110.048 103.041 110.509 103.178 111.074 103.361C111.819 103.61 112.669 103.865 113.174 104.907C114.746 108.192 116.387 108.682 117.637 109.059C118.006 109.173 118.337 109.272 118.617 109.426C119.54 109.936 120.353 111.177 120.82 112.225C121.213 113.08 122.63 114.07 123.848 114.741C124.291 114.977 124.781 115.475 125.329 116.034C125.911 116.629 126.554 117.289 127.398 117.922C129.498 119.489 130.598 120.362 131.485 121.073C131.743 121.282 131.975 121.47 132.212 121.661C132.953 122.257 133.869 123.105 134.698 123.866C134.765 123.927 134.829 123.986 134.892 124.042L134.807 123.948C135.814 124.846 136.8 125.741 137.608 126.381C139.321 128.618 140.924 130.903 142.377 132.803C143.125 133.781 143.298 134.95 143.038 136.284C143.032 136.32 143.024 136.356 143.017 136.392L142.588 136.099C142.721 136.898 142.592 137.568 142.854 138.722C142.891 138.816 142.93 138.912 143.016 139.073C143.047 139.141 143.127 139.268 143.204 139.418C143.233 139.481 143.312 139.622 143.375 139.776C143.441 139.946 143.513 140.088 143.587 140.527C143.641 140.927 143.652 141.497 143.308 142.165C143.144 142.475 142.918 142.738 142.694 142.926C142.504 143.083 142.344 143.177 142.188 143.254C141.515 143.546 141.382 143.465 141.175 143.477C140.859 143.451 140.752 143.381 140.677 143.327C140.389 143.098 140.403 142.889 140.379 142.685C140.358 142.277 140.448 141.888 140.559 141.503C140.673 141.119 140.827 140.75 140.97 140.385C141.031 140.201 141.129 140.02 141.067 139.82C141.046 139.771 141.016 139.713 140.865 139.676C140.763 139.671 140.7 139.614 140.338 139.758C140.254 139.797 140.166 139.845 140.062 139.927C139.939 140.026 139.814 140.167 139.722 140.335C139.528 140.696 139.528 141.01 139.552 141.23C139.587 141.47 139.621 141.549 139.651 141.643C139.68 141.728 139.717 141.804 139.727 141.839C139.757 141.923 139.786 141.991 139.791 142.031C139.811 142.12 139.804 142.175 139.794 142.228C139.465 142.903 138.761 143.257 138.068 143.546C138.004 143.497 137.797 143.377 137.739 143.322C137.693 143.328 137.646 143.334 137.599 143.339C135.826 143.518 134.069 142.869 132.9 141.825C130.546 139.712 128.551 137.734 126.55 135.805C125.788 135.067 125.037 134.34 124.288 133.616C124.274 133.596 124.222 133.547 124.208 133.528C122.53 131.816 121.024 130.299 119.408 128.595C117.784 126.88 116.15 125.137 114.532 123.379C114.365 123.197 114.188 123.004 114.029 122.831C112.339 121.683 110.641 120.487 109.566 119.588C108.665 118.832 108.204 118.06 107.831 117.422C107.571 116.98 107.334 116.581 106.994 116.265C106.819 116.102 106.574 115.892 106.27 115.63C105.023 114.552 102.921 112.743 101.412 110.681C101.238 110.443 101.061 110.187 100.881 109.917C100.405 109.18 99.8896 108.309 99.4048 107.482C98.4904 105.908 97.6068 104.415 96.916 103.922C95.687 103.041 94.6327 101.717 93.6983 100.546C92.8091 99.4305 92.0092 98.435 91.3208 98.1425C90.4935 97.7885 90.0485 97.1633 89.4351 96.2829C89.006 95.6687 88.463 94.9003 87.6223 93.9805C86.6636 92.9305 86.0847 92.0411 85.6082 91.3003C84.9415 90.2618 84.4236 89.4651 83.185 88.7846C81.817 88.0363 80.4825 87.1069 79.6936 86.1489C79.3311 85.7093 78.8558 85.2654 78.3592 84.8017C77.7041 84.1902 77.0216 83.5532 76.511 82.8426C76.0909 82.2578 75.893 81.6178 75.7225 81.0561C75.6689 80.8804 75.617 80.7121 75.5615 80.5544C75.1558 80.1641 74.7479 79.7745 74.3369 79.3867C74.2355 79.3597 74.1268 79.3333 74.0139 79.3053C73.4457 79.1632 72.7535 78.9938 72.0798 78.5888C71.0144 77.9487 70.3752 77.0762 69.7064 76.1598C69.1848 75.4454 68.6411 74.7007 67.8566 74.014C67.3217 73.5459 66.6513 73.0757 65.9869 72.6099C65.0009 71.9187 64.0247 71.2331 63.5238 70.5783C63.336 70.3328 63.2875 70.0057 63.2404 69.6813C63.2404 69.6796 63.2405 69.6779 63.2405 69.6763C63.2373 69.6542 63.2338 69.6324 63.2306 69.6104C61.6956 68.3315 60.1571 67.0718 58.6025 65.81C58.443 65.727 58.2827 65.6423 58.1242 65.5582C57.3505 65.1484 56.597 64.7484 55.9767 64.617C55.3021 64.4725 54.1218 63.6237 52.8563 62.7092C52.0292 62.1119 51.1872 61.5071 50.4339 61.0599C49.9932 60.798 49.7985 60.3213 49.5998 59.8319C49.4144 59.3752 49.225 58.9074 48.8291 58.5943C48.6329 58.4395 48.3708 58.305 48.0965 58.167C47.8543 58.0448 47.5985 57.9161 47.357 57.7552C47.1328 57.6057 46.7872 57.1144 46.3484 56.4903C46.081 56.1082 45.7575 55.656 45.4149 55.21C44.2696 54.2816 43.1189 53.3411 41.984 52.4044C41.6385 52.3228 41.2854 52.309 40.9258 52.3819C40.6686 52.4349 40.3917 52.5278 40.1119 52.6259C39.7302 52.7586 39.3359 52.8957 38.9436 52.9299C38.637 52.9566 38.402 52.8583 38.3546 52.6786C38.3326 52.5948 38.3506 52.4944 38.3667 52.4035C38.3852 52.2994 38.4016 52.2067 38.3539 52.1637C38.3193 52.1328 38.2415 52.1441 38.1467 52.1572C37.9953 52.178 37.7993 52.2044 37.6616 52.0791C37.1584 51.622 36.5995 51.0136 36.0771 50.4417C35.4948 49.8043 34.9287 49.1852 34.4026 48.7425C33.8142 48.2475 33.2284 47.3627 32.5909 46.4297C32.1524 45.7848 31.7489 45.175 31.3139 44.6657C30.8938 44.1725 30.3306 43.8082 29.794 43.4654C29.1449 43.0491 28.4913 42.6218 28.191 42.0531C28.1295 41.9372 28.1914 41.6498 28.2695 41.2911C28.3272 41.039 28.3829 40.741 28.409 40.4421C27.9088 39.9624 27.428 39.4914 26.9669 39.0307C26.8792 38.9433 26.792 38.8561 26.7054 38.7692C26.6613 38.774 26.6161 38.7786 26.5705 38.7838C26.5696 38.784 26.5687 38.7843 26.5678 38.7846C25.5309 38.8942 24.1663 39.0957 23.6879 37.7418C23.5719 37.4031 23.64 37.0467 23.7013 36.726C23.7626 36.4121 23.8152 36.1291 23.6768 35.9273C23.5213 35.7001 23.1794 35.6034 22.8117 35.5022C22.3 35.3647 21.7168 35.2005 21.5068 34.6393C21.4927 34.6012 21.4778 34.56 21.4618 34.5177C21.3099 34.1161 21.0975 33.5342 21.0547 32.728C19.9393 31.4704 18.8239 30.1842 17.7229 28.9007C15.8914 26.7679 14.0716 24.6003 12.2931 22.5899C11.4365 21.6188 11.0282 20.3097 11.1423 18.917C11.3158 17.5527 11.526 15.9273 12.2671 14.4867C12.9829 13.0528 14.2696 11.8877 16.127 11.6825C17.9229 11.4471 19.5896 11.8431 20.8217 12.6663C22.857 14.0427 24.7143 15.3521 26.6039 16.7334C26.7204 16.7953 26.8223 16.8452 26.9308 16.904C27.7413 17.345 28.6471 17.5664 29.5757 17.8105C29.7819 17.8599 29.9903 17.9112 30.1988 17.9668Z" fill="black"/>
</svg>
